Coordinates
version=1
nRows=17
nColumns=40
inDegrees=yes

Units are S.I. units (second, meters, Newtons, ...)
Angles are in degrees.

endheader
time	pelvis_tilt	pelvis_list	pelvis_rotation	pelvis_tx	pelvis_ty	pelvis_tz	hip_flexion_r	hip_adduction_r	hip_rotation_r	knee_angle_r	knee_angle_r_beta	ankle_angle_r	subtalar_angle_r	mtp_angle_r	hip_flexion_l	hip_adduction_l	hip_rotation_l	knee_angle_l	knee_angle_l_beta	ankle_angle_l	subtalar_angle_l	mtp_angle_l	lumbar_extension	lumbar_bending	lumbar_rotation	arm_flex_r	arm_add_r	arm_rot_r	elbow_flex_r	pro_sup_r	wrist_flex_r	wrist_dev_r	arm_flex_l	arm_add_l	arm_rot_l	elbow_flex_l	pro_sup_l	wrist_flex_l	wrist_dev_l
      1.82714286	     -5.08777505	     -3.48154045	     -0.70271064	      0.93622655	      0.93567986	      0.44733720	     33.02250048	     -5.68092632	     -4.43973958	     64.57872743	     64.57872743	      2.51429901	    -15.46713412	      0.59550402	      9.34527746	     -2.59883560	     -8.17495684	     16.24956581	     16.24956581	     14.62344021	     -8.65359834	      3.06547072	     -8.81234230	      6.25357324	      4.26501277	     -2.82398094	    -11.82030977	     -9.14564273	     22.78452398	     46.67216753	      0.00000000	      0.00000000	     17.51026142	    -15.09774049	     -5.45080154	     59.72683283	     46.79489539	      0.00000000	      0.00000000
      1.83928571	     -5.22794350	     -3.49229322	     -0.99632179	      0.93504938	      0.93547283	      0.44786878	     34.02951615	     -5.58314740	     -4.55710662	     62.72887274	     62.72887274	      2.73353567	    -15.34971718	      0.77162559	      8.90181082	     -2.62324730	     -8.35237840	     16.02819450	     16.02819450	     14.85464655	     -8.72780249	      2.98562060	     -8.74588349	      6.26936092	      3.80451430	     -4.01486904	    -11.77723549	     -9.15995716	     22.36665306	     46.68082907	      0.00000000	      0.00000000	     18.33543444	    -15.71065499	     -5.75738804	     60.39949278	     46.83454144	      0.00000000	      0.00000000
      1.85142857	     -5.25241513	     -3.69518931	     -1.33096396	      0.93404003	      0.93541097	      0.44862803	     34.71777906	     -5.16369428	     -4.70028466	     60.46517532	     60.46517532	      2.76444830	    -15.67823618	      1.11936867	      7.97859665	     -2.78310226	     -8.38720266	     15.12608960	     15.12608960	     14.70515359	     -8.95480933	      2.40878648	     -9.07327595	      6.44575218	      3.65286465	     -5.48344911	    -11.75843980	     -9.19808598	     22.24818424	     46.69303749	      0.00000000	      0.00000000	     17.65204310	    -15.97053051	     -7.38982660	     65.86983666	     47.05483062	      0.00000000	      0.00000000
      1.86357143	     -5.33702155	     -3.82068052	     -1.64732804	      0.93295244	      0.93507152	      0.44950323	     35.28321908	     -4.82672406	     -4.88923372	     57.83629446	     57.83629446	      2.91510266	    -15.78996016	      1.42316297	      7.35847261	     -2.92718437	     -8.55186038	     14.70377695	     14.70377695	     14.93393908	     -8.92535109	      2.25220346	     -9.17146955	      6.55761627	      3.85502199	     -6.88792996	    -11.78325990	     -9.15341585	     21.73956957	     46.70242437	      0.00000000	      0.00000000	     18.49443058	    -16.06808367	     -7.83184226	     67.42182236	     47.12210071	      0.00000000	      0.00000000
      1.87571429	     -5.49687667	     -3.93572026	     -1.91942118	      0.93180590	      0.93445913	      0.45043350	     35.75301866	     -4.55424246	     -5.24729792	     54.89595500	     54.89595500	      3.07312058	    -15.72453444	      1.68800118	      6.90563742	     -3.08201758	     -8.72888922	     14.42071474	     14.42071474	     15.17303448	     -8.91916598	      2.06133213	     -9.18879653	      6.66493619	      3.87033101	     -8.20871041	    -11.79295654	     -9.17753232	     21.45993752	     46.70657832	      0.00000000	      0.00000000	     19.18447560	    -16.30554828	     -8.18284260	     68.96532370	     47.18021902	      0.00000000	      0.00000000
      1.88785714	     -5.62237996	     -4.05101596	     -2.17086078	      0.93076875	      0.93372819	      0.45145908	     35.95908138	     -4.24780312	     -5.65889746	     51.61290264	     51.61290264	      3.29069379	    -15.58106853	      1.86925759	      6.43694462	     -3.25133150	     -8.92900826	     14.20044160	     14.20044160	     15.43338983	     -8.85738778	      1.78529978	     -9.27245442	      6.76993446	      3.99267603	     -9.51142044	    -11.81811223	     -9.23942518	     21.35334132	     46.70640696	      0.00000000	      0.00000000	     19.72798591	    -16.42865642	     -8.50730316	     70.92881040	     47.24294030	      0.00000000	      0.00000000
      1.90000000	     -5.81797494	     -4.12971877	     -2.39136982	      0.92977824	      0.93273740	      0.45260409	     36.03802525	     -3.96726575	     -6.16217108	     48.05055166	     48.05055166	      3.53807610	    -15.18509548	      2.03121914	      6.08284044	     -3.39871159	     -9.11379428	     14.05009726	     14.05009726	     15.72033553	     -8.77604834	      1.48610111	     -9.25270728	      6.80291849	      3.98487895	    -10.67084966	    -11.80187739	     -9.31153260	     21.31577826	     46.70442339	      0.00000000	      0.00000000	     20.24677806	    -16.70375328	     -8.79528685	     72.63497017	     47.29813231	      0.00000000	      0.00000000
      1.91214286	     -5.92303626	     -4.14403636	     -2.60653379	      0.92901545	      0.93165439	      0.45383331	     35.77506433	     -3.70589741	     -6.68479045	     44.17161045	     44.17161045	      3.40654442	    -14.76167100	      1.11912599	      5.66531202	     -3.53460822	     -9.62337671	     14.00442281	     14.00442281	     15.96040177	     -8.29728239	      0.63518989	     -9.42687756	      6.72987964	      3.70556297	    -11.86996371	    -11.84078715	     -9.57223434	     22.36354937	     46.67463370	      0.00000000	      0.00000000	     19.72326576	    -17.17387040	     -9.43823717	     76.63443446	     47.43237705	      0.00000000	      0.00000000
      1.92428571	     -6.04264858	     -4.15186432	     -2.74089230	      0.92847520	      0.93049381	      0.45503037	     35.27727447	     -3.46260447	     -7.36016131	     40.08087710	     40.08087710	      3.48915723	    -13.82053799	      0.78258569	      5.23133812	     -3.61317609	     -9.83624412	     13.89733277	     13.89733277	     16.27359485	     -8.08268310	      0.19404588	     -9.41501737	      6.68834405	      3.68813891	    -12.81249432	    -11.84207963	     -9.55146489	     22.42617310	     46.66537340	      0.00000000	      0.00000000	     20.05653896	    -17.28720432	     -9.78162217	     78.42755445	     47.50963937	      0.00000000	      0.00000000
      1.93642857	     -6.21520184	     -4.22188321	     -2.85687218	      0.92813665	      0.92917376	      0.45648439	     34.63583414	     -3.07751605	     -8.08092525	     35.90815140	     35.90815140	      3.64815197	    -12.67431188	      1.20907251	      4.85885261	     -3.76907085	     -9.89719922	     13.82850216	     13.82850216	     16.63769496	     -8.08897370	     -0.04024974	     -9.26325509	      6.68805993	      3.56793879	    -13.50984859	    -11.83269899	     -9.55869605	     22.28306060	     46.66631663	      0.00000000	      0.00000000	     20.47923560	    -17.45157788	     -9.84945597	     79.22486761	     47.53648240	      0.00000000	      0.00000000
      1.94857143	     -6.29024183	     -4.19007457	     -2.92714804	      0.92821775	      0.92780336	      0.45784488	     33.72604483	     -2.79174457	     -8.84344251	     31.78761230	     31.78761230	      3.74655035	    -11.17777439	      1.69466787	      4.35076249	     -3.80742712	    -10.04017782	     13.74520944	     13.74520944	     17.02410080	     -7.92959616	     -0.32343131	     -9.15487501	      6.64432935	      3.58274154	    -14.15676542	    -11.78668649	     -9.57043301	     22.19518736	     46.66544734	      0.00000000	      0.00000000	     20.82006918	    -17.50933570	     -9.83853345	     80.28532661	     47.56262447	      0.00000000	      0.00000000
      1.96071429	     -6.29072624	     -4.14497696	     -2.96071788	      0.92865845	      0.92637558	      0.45931706	     32.62504405	     -2.51886535	     -9.71221705	     27.87353141	     27.87353141	      3.76405159	     -9.35979278	      2.26591711	      3.72356327	     -3.84238734	    -10.19447450	     13.63778402	     13.63778402	     17.44418451	     -7.62673499	     -0.63405835	     -9.09009661	      6.53362979	      3.58831681	    -14.72214387	    -11.75010691	     -9.59028346	     22.17816101	     46.66303044	      0.00000000	      0.00000000	     20.99366317	    -17.52702603	     -9.73881845	     81.43696926	     47.58469823	      0.00000000	      0.00000000
      1.97285714	     -6.28149973	     -4.05562623	     -2.96631667	      0.92943701	      0.92481690	      0.46088543	     31.49529673	     -2.27860060	    -10.57845589	     24.37387736	     24.37387736	      3.69719202	     -7.50771165	      2.93897996	      3.05592185	     -3.83489542	    -10.36108412	     13.51332247	     13.51332247	     17.89840873	     -7.29454699	     -0.92059502	     -8.95237495	      6.39669362	      3.57027316	    -15.12080474	    -11.68266635	     -9.60141208	     22.21281237	     46.65908564	      0.00000000	      0.00000000	     21.05165827	    -17.55092908	     -9.58370014	     82.47133337	     47.60073368	      0.00000000	      0.00000000
      1.98500000	     -6.28734437	     -3.90717379	     -2.97041017	      0.93042175	      0.92312875	      0.46251900	     30.48705661	     -2.09710421	    -11.31290251	     21.51112124	     21.51112124	      3.55178124	     -5.82148915	      3.59872086	      2.41144344	     -3.76052794	    -10.44307158	     13.42390358	     13.42390358	     18.39103286	     -6.97834946	     -1.17402167	     -8.76743835	      6.21415873	      3.52384728	    -15.36214362	    -11.58467064	     -9.59331438	     22.27324670	     46.65383826	      0.00000000	      0.00000000	     21.04805440	    -17.55163516	     -9.39895354	     83.26860974	     47.60763434	      0.00000000	      0.00000000
      1.99714286	     -6.12723311	     -3.92350338	     -2.88238353	      0.93184697	      0.92176036	      0.46427654	     29.29104977	     -1.85615937	    -12.45744024	     19.19729792	     19.19729792	      3.36727665	     -4.01025207	      4.21799017	      1.55395596	     -3.89231723	    -10.62049225	     13.32312988	     13.32312988	     18.88190012	     -6.56550354	     -1.29354323	     -8.70000786	      6.16969167	      3.47978484	    -15.49408835	    -11.60304660	     -9.57291910	     22.32466139	     46.65012730	      0.00000000	      0.00000000	     20.79245591	    -17.51190742	     -9.08061466	     84.14153196	     47.61131027	      0.00000000	      0.00000000
      2.00928571	     -6.15307803	     -3.73108548	     -2.82914419	      0.93314754	      0.92009545	      0.46612044	     28.61129924	     -1.79676636	    -12.99624749	     17.80074366	     17.80074366	      3.09129687	     -3.11289756	      4.56765641	      1.01414535	     -3.80543187	    -10.64178614	     13.41140833	     13.41140833	     19.32424690	     -6.41714895	     -1.40002678	     -8.36740429	      5.89419772	      3.41928861	    -15.39779226	    -11.48510265	     -9.53469999	     22.37425923	     46.64604219	      0.00000000	      0.00000000	     20.60021508	    -17.35675420	     -8.84756442	     84.48462076	     47.60639982	      0.00000000	      0.00000000
      2.02142857	     -6.00887679	     -3.85054814	     -2.76216669	      0.93480278	      0.91893280	      0.46811260	     27.69567839	     -1.56151663	    -14.12084939	     16.81151515	     16.81151515	      2.66844131	     -1.62258071	      4.03389855	      0.31502672	     -4.12686939	    -10.91847128	     13.67492805	     13.67492805	     20.19039837	     -5.71931637	     -0.81126294	     -8.25453300	      6.00982039	      3.25170488	    -15.02403019	    -11.51778855	     -9.29049174	     22.22929995	     46.64304988	      0.00000000	      0.00000000	     19.99100098	    -17.48287897	     -8.33037753	     85.35833592	     47.61777303	      0.00000000	      0.00000000
